<?xml version="1.0" encoding="utf-8"?>
<!-- Generator: Adobe Illustrator 23.0.4, SVG Export Plug-In . SVG Version: 6.00 Build 0)  -->
<svg version="1.1" id="Layer_1" xmlns="http://www.w3.org/2000/svg" xmlns:xlink="http://www.w3.org/1999/xlink" x="0px" y="0px"
	 viewBox="0 0 385 95" style="enable-background:new 0 0 385 95;" xml:space="preserve">
<style type="text/css">
	.st0{fill:#313768;}
	.st1{fill:none;stroke:#313768;stroke-width:5;stroke-linecap:round;stroke-miterlimit:10;}
	.st2{fill:none;stroke:#313768;stroke-width:5;stroke-miterlimit:10;}
</style>
<g>
	<g>
		<path class="st0" d="M117.1,69c-2.4-0.7-4.4-1.6-6-2.8c-0.5-0.4-0.9-0.8-1.2-1.3c-0.2-0.4-0.4-1-0.4-1.7c0-0.9,0.3-1.7,0.8-2.4
			c0.6-0.7,1.2-1,1.9-1c0.4,0,0.8,0.1,1.2,0.2c0.4,0.1,0.8,0.4,1.4,0.7c1.5,1,3.1,1.7,4.7,2.1c1.6,0.5,3.3,0.7,5.2,0.7
			c2.4,0,4.2-0.4,5.5-1.2c1.3-0.8,1.9-1.9,1.9-3.4c0-1.1-0.6-2-1.8-2.7c-1.2-0.7-3.2-1.3-6.2-1.9c-3.3-0.7-6-1.5-8-2.5
			c-2-1-3.5-2.2-4.4-3.6c-0.9-1.4-1.4-3.2-1.4-5.2c0-2.3,0.7-4.3,2-6.1c1.3-1.8,3.1-3.2,5.5-4.3c2.3-1,4.9-1.5,7.9-1.5
			c5.1,0,9.3,1.3,12.6,3.8c0.5,0.4,0.9,0.9,1.2,1.3c0.2,0.5,0.4,1,0.4,1.6c0,0.9-0.3,1.7-0.8,2.4c-0.6,0.7-1.2,1-1.9,1
			c-0.4,0-0.8-0.1-1.1-0.2c-0.3-0.1-0.8-0.3-1.4-0.7c-1.5-0.9-2.8-1.6-4.1-2.1c-1.2-0.5-2.8-0.7-4.7-0.7c-2.2,0-3.9,0.4-5.2,1.3
			c-1.3,0.8-1.9,2-1.9,3.5c0,0.9,0.2,1.6,0.7,2.1c0.5,0.6,1.3,1.1,2.4,1.5c1.1,0.4,2.7,0.9,4.8,1.4c4.9,1.1,8.4,2.5,10.6,4.2
			c2.1,1.7,3.2,4,3.2,7c0,2.3-0.6,4.3-1.9,6.1c-1.3,1.8-3.1,3.1-5.4,4.1c-2.3,1-5,1.5-8.1,1.5C122.2,70,119.6,69.6,117.1,69z"/>
		<path class="st0" d="M155.7,68.6c-0.8-0.8-1.2-1.8-1.2-3V38.3h-8.7c-2.7,0-4-1.2-4-3.5c0-2.3,1.3-3.4,4-3.4h25.9
			c2.7,0,4,1.1,4,3.4c0,2.3-1.3,3.5-4,3.5h-8.7v27.3c0,1.3-0.4,2.3-1.1,3s-1.8,1.1-3.1,1.1C157.5,69.8,156.4,69.4,155.7,68.6z"/>
		<path class="st0" d="M184.8,67.6c-2.8-1.6-4.9-3.9-6.5-6.8c-1.5-2.9-2.3-6.4-2.3-10.3c0-4,0.8-7.4,2.3-10.3
			c1.5-2.9,3.7-5.2,6.5-6.8c2.8-1.6,6.1-2.4,9.9-2.4c3.8,0,7.1,0.8,9.9,2.4c2.8,1.6,4.9,3.8,6.5,6.8c1.5,2.9,2.3,6.4,2.3,10.3
			c0,4-0.8,7.4-2.3,10.3c-1.5,2.9-3.7,5.2-6.5,6.8c-2.8,1.6-6.1,2.4-9.9,2.4C190.8,70,187.6,69.2,184.8,67.6z M202.1,60.1
			c1.8-2.2,2.7-5.5,2.7-9.7c0-4.2-0.9-7.4-2.7-9.6c-1.8-2.2-4.3-3.3-7.5-3.3c-3.2,0-5.7,1.1-7.5,3.3c-1.8,2.2-2.7,5.4-2.7,9.6
			c0,4.2,0.9,7.4,2.7,9.7c1.8,2.2,4.3,3.3,7.5,3.3C197.8,63.4,200.3,62.3,202.1,60.1z"/>
		<path class="st0" d="M227.3,67.6c-2.8-1.6-5-3.9-6.5-6.8c-1.5-3-2.3-6.4-2.3-10.4c0-4,0.8-7.4,2.3-10.3c1.5-2.9,3.7-5.2,6.5-6.8
			c2.8-1.6,6.1-2.4,9.8-2.4c4.7,0,8.8,1.3,12.2,3.9c0.5,0.4,0.9,0.9,1.1,1.3s0.3,1,0.3,1.6c0,0.9-0.3,1.7-0.8,2.4
			c-0.5,0.7-1.2,1-1.9,1c-0.5,0-0.9-0.1-1.3-0.2c-0.4-0.1-0.8-0.4-1.3-0.7c-1.4-0.9-2.8-1.6-4-2c-1.2-0.4-2.5-0.6-3.9-0.6
			c-3.5,0-6.1,1.1-7.8,3.2c-1.7,2.1-2.6,5.3-2.6,9.6c0,8.6,3.5,12.9,10.4,12.9c1.3,0,2.6-0.2,3.8-0.6c1.2-0.4,2.6-1.1,4.2-2
			c0.5-0.3,1-0.5,1.3-0.7c0.4-0.1,0.8-0.2,1.2-0.2c0.8,0,1.4,0.3,1.9,1c0.5,0.7,0.8,1.5,0.8,2.4c0,0.6-0.1,1.2-0.4,1.6
			c-0.2,0.5-0.6,0.9-1.1,1.3c-3.4,2.6-7.5,3.9-12.2,3.9C233.4,70,230.1,69.2,227.3,67.6z"/>
		<path class="st0" d="M288.3,65.9c0,1-0.4,1.9-1.2,2.6c-0.8,0.8-1.7,1.1-2.7,1.1c-1.2,0-2.2-0.5-3.1-1.4l-16.7-16.4v13.7
			c0,1.3-0.4,2.3-1.1,3.1c-0.8,0.8-1.8,1.1-3.1,1.1s-2.3-0.4-3.1-1.1c-0.8-0.8-1.1-1.8-1.1-3.1V35.3c0-1.3,0.4-2.3,1.1-3
			c0.8-0.8,1.8-1.1,3.1-1.1s2.3,0.4,3.1,1.1c0.8,0.8,1.1,1.8,1.1,3v12.9L281,32.4c0.8-0.8,1.7-1.2,2.7-1.2s1.9,0.4,2.6,1.1
			c0.8,0.7,1.1,1.6,1.1,2.6c0,1-0.4,2-1.3,2.8l-12.9,12l13.8,13.4C287.9,64,288.3,64.9,288.3,65.9z"/>
		<path class="st0" d="M293.9,68.5c-0.7-0.7-1-1.7-1-2.9V35.4c0-1.3,0.3-2.2,1-2.9c0.7-0.7,1.7-1,2.9-1h19.1c2.7,0,4,1.1,4,3.2
			c0,2.2-1.3,3.3-4,3.3h-14.8v8.9h13.8c2.7,0,4,1.1,4,3.3c0,2.2-1.3,3.2-4,3.2h-13.8V63h14.8c2.7,0,4,1.1,4,3.3c0,2.2-1.3,3.2-4,3.2
			h-19.1C295.5,69.5,294.6,69.1,293.9,68.5z"/>
		<path class="st0" d="M356.9,66.5c0,1-0.4,1.8-1.2,2.5c-0.8,0.6-1.8,1-2.8,1c-0.7,0-1.3-0.2-2-0.5c-0.6-0.3-1.2-0.8-1.6-1.5
			l-7.1-10.6c-0.6-0.9-1.3-1.6-1.9-2s-1.5-0.6-2.6-0.6h-4.4v10.9c0,1.3-0.4,2.3-1.1,3.1c-0.7,0.8-1.7,1.1-3,1.1
			c-1.3,0-2.3-0.4-3.1-1.1c-0.8-0.8-1.1-1.8-1.1-3.1V35.4c0-1.3,0.3-2.2,1-2.9c0.7-0.7,1.7-1,2.9-1h13.6c4.5,0,7.8,1,10.1,2.9
			c2.3,2,3.4,4.8,3.4,8.5c0,2.9-0.8,5.3-2.4,7.3c-1.6,1.9-3.9,3.2-6.9,3.8c1.1,0.2,2,0.6,2.9,1.3s1.7,1.5,2.5,2.7l4.1,6.2
			C356.6,64.9,356.9,65.7,356.9,66.5z M346.4,47.1c1.1-0.8,1.6-2.2,1.6-4c0-1.8-0.5-3.2-1.6-4c-1.1-0.8-2.8-1.2-5.2-1.2h-8v10.5h8
			C343.5,48.3,345.3,47.9,346.4,47.1z"/>
	</g>
</g>
<g>
	<g>
		<g>
			<polyline class="st1" points="28.6,70.3 40.6,58.4 48.3,67.2 66.4,50.9 			"/>
			<g>
				<polygon class="st0" points="68.7,55.6 71.8,46.1 62,48.1 				"/>
			</g>
		</g>
	</g>
	<path class="st2" d="M78.3,83.3H20.6c-2.3,0-4.2-1.9-4.2-4.2V21.5c0-2.3,1.9-4.2,4.2-4.2h57.7c2.3,0,4.2,1.9,4.2,4.2v57.7
		C82.5,81.5,80.6,83.3,78.3,83.3z"/>
	<line class="st2" x1="16.5" y1="36.1" x2="82.5" y2="36.1"/>
	<line class="st1" x1="29.5" y1="17.3" x2="29.5" y2="9.6"/>
	<line class="st1" x1="67.6" y1="17.3" x2="67.6" y2="9.6"/>
</g>
</svg>
